<svg width="150" height="28" viewBox="0 0 150 28" fill="none" xmlns="http://www.w3.org/2000/svg">
<path d="M7.00001 21H4.81501C4.49958 21.0009 4.18927 20.9203 3.91418 20.7659C3.6391 20.6116 3.40859 20.3887 3.24501 20.119C3.08792 19.8481 3.00486 19.5407 3.00415 19.2275C3.00345 18.9144 3.08514 18.6066 3.24101 18.335L7.19601 11.5" stroke="#4ADE80" stroke-width="2" stroke-linecap="round" stroke-linejoin="round"/>
<path d="M11 21.0001H19.203C19.5169 20.9977 19.8249 20.9145 20.0974 20.7586C20.3699 20.6028 20.5978 20.3794 20.759 20.1101C20.9139 19.84 20.9954 19.534 20.9954 19.2226C20.9954 18.9112 20.9139 18.6052 20.759 18.3351L19.533 16.2151" stroke="#4ADE80" stroke-width="2" stroke-linecap="round" stroke-linejoin="round"/>
<path d="M14 18L11 21L14 24" stroke="#4ADE80" stroke-width="2" stroke-linecap="round" stroke-linejoin="round"/>
<path d="M8.29298 15.596L7.19598 11.5L3.09998 12.598" stroke="#4ADE80" stroke-width="2" stroke-linecap="round" stroke-linejoin="round"/>
<path d="M9.34399 7.811L10.437 5.919C10.5939 5.6454 10.8189 5.41701 11.0902 5.25599C11.3614 5.09497 11.6696 5.00679 11.985 5C12.2979 4.99942 12.6055 5.08116 12.8769 5.23703C13.1482 5.39289 13.3738 5.6174 13.531 5.888L17.474 12.731" stroke="#4ADE80" stroke-width="2" stroke-linecap="round" stroke-linejoin="round"/>
<path d="M13.3781 11.633L17.4741 12.731L18.5711 8.63501" stroke="#4ADE80" stroke-width="2" stroke-linecap="round" stroke-linejoin="round"/>
<path d="M33.2642 21V6.45455H39.0028C40.1013 6.45455 41.0388 6.65104 41.8153 7.04403C42.5966 7.43229 43.1908 7.9839 43.598 8.69886C44.0099 9.40909 44.2159 10.2448 44.2159 11.206C44.2159 12.1719 44.0076 13.0028 43.5909 13.6989C43.1742 14.3902 42.5705 14.9205 41.7798 15.2898C40.9938 15.6591 40.0421 15.8438 38.9247 15.8438H35.0824V13.3722H38.4276C39.0147 13.3722 39.5024 13.2917 39.8906 13.1307C40.2789 12.9697 40.5677 12.7282 40.7571 12.4062C40.9512 12.0843 41.0483 11.6842 41.0483 11.206C41.0483 10.723 40.9512 10.3158 40.7571 9.98438C40.5677 9.65294 40.2765 9.40199 39.8835 9.23153C39.4953 9.05634 39.0052 8.96875 38.4134 8.96875H36.3395V21H33.2642ZM41.1193 14.3807L44.7344 21H41.3395L37.8026 14.3807H41.1193ZM51.1282 21.2131C50.006 21.2131 49.0401 20.9858 48.2305 20.5312C47.4255 20.072 46.8053 19.4233 46.3697 18.5852C45.9341 17.7424 45.7163 16.7457 45.7163 15.5952C45.7163 14.473 45.9341 13.4882 46.3697 12.6406C46.8053 11.7931 47.4184 11.1326 48.2092 10.6591C49.0046 10.1856 49.9374 9.94886 51.0075 9.94886C51.7272 9.94886 52.3971 10.0649 53.0174 10.2969C53.6424 10.5241 54.1869 10.8674 54.6509 11.3267C55.1197 11.786 55.4843 12.3636 55.7447 13.0597C56.0051 13.7509 56.1353 14.5606 56.1353 15.4886V16.3196H46.9237V14.4446H53.2873C53.2873 14.009 53.1926 13.6231 53.0032 13.2869C52.8138 12.9508 52.551 12.688 52.2148 12.4986C51.8834 12.3045 51.4975 12.2074 51.0572 12.2074C50.5979 12.2074 50.1907 12.3139 49.8356 12.527C49.4852 12.7353 49.2106 13.017 49.0117 13.3722C48.8129 13.7225 48.7111 14.1132 48.7063 14.544V16.3267C48.7063 16.8665 48.8058 17.3329 49.0046 17.7259C49.2082 18.1188 49.4947 18.4219 49.864 18.6349C50.2333 18.848 50.6713 18.9545 51.1779 18.9545C51.5141 18.9545 51.8219 18.9072 52.1012 18.8125C52.3806 18.7178 52.6197 18.5758 52.8185 18.3864C53.0174 18.197 53.1689 17.965 53.2731 17.6903L56.0714 17.875C55.9293 18.5473 55.6381 19.1345 55.1978 19.6364C54.7622 20.1335 54.1987 20.5218 53.5075 20.8011C52.8209 21.0758 52.0278 21.2131 51.1282 21.2131ZM63.0387 21.2131C61.9213 21.2131 60.9601 20.9763 60.1552 20.5028C59.355 20.0246 58.7395 19.3617 58.3086 18.5142C57.8825 17.6667 57.6694 16.6913 57.6694 15.5881C57.6694 14.4706 57.8848 13.4905 58.3157 12.6477C58.7513 11.8002 59.3692 11.1397 60.1694 10.6662C60.9696 10.188 61.9213 9.94886 63.0245 9.94886C63.9762 9.94886 64.8095 10.1217 65.5245 10.4673C66.2395 10.813 66.8053 11.2983 67.2219 11.9233C67.6386 12.5483 67.8683 13.2822 67.9109 14.125H65.0558C64.9753 13.5805 64.7622 13.1425 64.4165 12.8111C64.0756 12.4749 63.6282 12.3068 63.0742 12.3068C62.6055 12.3068 62.1959 12.4347 61.8455 12.6903C61.4999 12.9413 61.23 13.3082 61.0359 13.7912C60.8417 14.2741 60.7447 14.8589 60.7447 15.5455C60.7447 16.2415 60.8394 16.8333 61.0288 17.321C61.2229 17.8087 61.4951 18.1804 61.8455 18.4361C62.1959 18.6918 62.6055 18.8196 63.0742 18.8196C63.4199 18.8196 63.73 18.7486 64.0046 18.6065C64.284 18.4645 64.5136 18.2585 64.6935 17.9886C64.8782 17.714 64.9989 17.3849 65.0558 17.0014H67.9109C67.8635 17.8348 67.6362 18.5687 67.229 19.2031C66.8266 19.8329 66.2702 20.3253 65.56 20.6804C64.8498 21.0355 64.0094 21.2131 63.0387 21.2131ZM69.848 21V10.0909H72.8736V21H69.848ZM71.3679 8.68466C70.9181 8.68466 70.5322 8.53551 70.2102 8.23722C69.893 7.93419 69.7344 7.57197 69.7344 7.15057C69.7344 6.7339 69.893 6.37642 70.2102 6.07812C70.5322 5.77509 70.9181 5.62358 71.3679 5.62358C71.8177 5.62358 72.2012 5.77509 72.5185 6.07812C72.8404 6.37642 73.0014 6.7339 73.0014 7.15057C73.0014 7.57197 72.8404 7.93419 72.5185 8.23722C72.2012 8.53551 71.8177 8.68466 71.3679 8.68466ZM80.2262 21.2131C79.1088 21.2131 78.1476 20.9763 77.3427 20.5028C76.5425 20.0246 75.927 19.3617 75.4961 18.5142C75.07 17.6667 74.8569 16.6913 74.8569 15.5881C74.8569 14.4706 75.0723 13.4905 75.5032 12.6477C75.9388 11.8002 76.5567 11.1397 77.3569 10.6662C78.1571 10.188 79.1088 9.94886 80.212 9.94886C81.1637 9.94886 81.997 10.1217 82.712 10.4673C83.427 10.813 83.9928 11.2983 84.4094 11.9233C84.8261 12.5483 85.0558 13.2822 85.0984 14.125H82.2433C82.1628 13.5805 81.9497 13.1425 81.604 12.8111C81.2631 12.4749 80.8157 12.3068 80.2617 12.3068C79.793 12.3068 79.3834 12.4347 79.033 12.6903C78.6874 12.9413 78.4175 13.3082 78.2234 13.7912C78.0292 14.2741 77.9322 14.8589 77.9322 15.5455C77.9322 16.2415 78.0269 16.8333 78.2163 17.321C78.4104 17.8087 78.6826 18.1804 79.033 18.4361C79.3834 18.6918 79.793 18.8196 80.2617 18.8196C80.6074 18.8196 80.9175 18.7486 81.1921 18.6065C81.4715 18.4645 81.7011 18.2585 81.881 17.9886C82.0657 17.714 82.1864 17.3849 82.2433 17.0014H85.0984C85.051 17.8348 84.8237 18.5687 84.4165 19.2031C84.0141 19.8329 83.4577 20.3253 82.7475 20.6804C82.0373 21.0355 81.1969 21.2131 80.2262 21.2131ZM90.0611 6.45455V21H87.0355V6.45455H90.0611ZM95.5955 21.206C94.8995 21.206 94.2792 21.0852 93.7347 20.8438C93.1902 20.5975 92.7594 20.2353 92.4421 19.7571C92.1296 19.2741 91.9734 18.6728 91.9734 17.9531C91.9734 17.3471 92.0846 16.8381 92.3072 16.4261C92.5297 16.0142 92.8327 15.6828 93.2163 15.4318C93.5998 15.1809 94.0354 14.9915 94.5231 14.8636C95.0155 14.7358 95.5316 14.6458 96.0714 14.5938C96.7058 14.5275 97.2172 14.4659 97.6055 14.4091C97.9937 14.3475 98.2755 14.2576 98.4506 14.1392C98.6258 14.0208 98.7134 13.8456 98.7134 13.6136V13.571C98.7134 13.1212 98.5714 12.7732 98.2873 12.527C98.0079 12.2808 97.6102 12.1577 97.0941 12.1577C96.5496 12.1577 96.1164 12.2784 95.7944 12.5199C95.4724 12.7566 95.2594 13.0549 95.1552 13.4148L92.3569 13.1875C92.4989 12.5246 92.7783 11.9517 93.195 11.4688C93.6116 10.9811 94.149 10.607 94.8072 10.3466C95.4701 10.0814 96.2371 9.94886 97.1083 9.94886C97.7144 9.94886 98.2944 10.0199 98.8484 10.1619C99.4071 10.304 99.9019 10.5241 100.333 10.8224C100.768 11.1207 101.112 11.5043 101.363 11.973C101.614 12.437 101.739 12.9934 101.739 13.642V21H98.8697V19.4872H98.7844C98.6093 19.8281 98.3749 20.1288 98.0813 20.3892C97.7878 20.6449 97.435 20.8461 97.0231 20.9929C96.6112 21.1349 96.1353 21.206 95.5955 21.206ZM96.462 19.1179C96.9071 19.1179 97.3001 19.0303 97.641 18.8551C97.9819 18.6752 98.2494 18.4337 98.4435 18.1307C98.6377 17.8277 98.7347 17.4844 98.7347 17.1009V15.9432C98.64 16.0047 98.5098 16.0616 98.3441 16.1136C98.1831 16.161 98.0008 16.206 97.7972 16.2486C97.5936 16.2865 97.39 16.322 97.1864 16.3551C96.9828 16.3835 96.7982 16.4096 96.6325 16.4332C96.2773 16.4853 95.9672 16.5682 95.7021 16.6818C95.4369 16.7955 95.2309 16.9493 95.0842 17.1435C94.9374 17.3329 94.864 17.5696 94.864 17.8537C94.864 18.2656 95.0131 18.5805 95.3114 18.7983C95.6145 19.0114 95.998 19.1179 96.462 19.1179ZM102.671 8.99006V6.45455H114.617V8.99006H110.164V21H107.124V8.99006H102.671ZM119.917 21.2131C118.795 21.2131 117.829 20.9858 117.02 20.5312C116.215 20.072 115.594 19.4233 115.159 18.5852C114.723 17.7424 114.505 16.7457 114.505 15.5952C114.505 14.473 114.723 13.4882 115.159 12.6406C115.594 11.7931 116.208 11.1326 116.998 10.6591C117.794 10.1856 118.726 9.94886 119.797 9.94886C120.516 9.94886 121.186 10.0649 121.806 10.2969C122.431 10.5241 122.976 10.8674 123.44 11.3267C123.909 11.786 124.273 12.3636 124.534 13.0597C124.794 13.7509 124.924 14.5606 124.924 15.4886V16.3196H115.713V14.4446H122.076C122.076 14.009 121.982 13.6231 121.792 13.2869C121.603 12.9508 121.34 12.688 121.004 12.4986C120.672 12.3045 120.287 12.2074 119.846 12.2074C119.387 12.2074 118.98 12.3139 118.625 12.527C118.274 12.7353 118 13.017 117.801 13.3722C117.602 13.7225 117.5 14.1132 117.495 14.544V16.3267C117.495 16.8665 117.595 17.3329 117.794 17.7259C117.997 18.1188 118.284 18.4219 118.653 18.6349C119.022 18.848 119.46 18.9545 119.967 18.9545C120.303 18.9545 120.611 18.9072 120.89 18.8125C121.17 18.7178 121.409 18.5758 121.608 18.3864C121.806 18.197 121.958 17.965 122.062 17.6903L124.86 17.875C124.718 18.5473 124.427 19.1345 123.987 19.6364C123.551 20.1335 122.988 20.5218 122.297 20.8011C121.61 21.0758 120.817 21.2131 119.917 21.2131ZM131.828 21.2131C130.71 21.2131 129.749 20.9763 128.944 20.5028C128.144 20.0246 127.529 19.3617 127.098 18.5142C126.672 17.6667 126.458 16.6913 126.458 15.5881C126.458 14.4706 126.674 13.4905 127.105 12.6477C127.54 11.8002 128.158 11.1397 128.958 10.6662C129.759 10.188 130.71 9.94886 131.814 9.94886C132.765 9.94886 133.599 10.1217 134.314 10.4673C135.029 10.813 135.594 11.2983 136.011 11.9233C136.428 12.5483 136.657 13.2822 136.7 14.125H133.845C133.764 13.5805 133.551 13.1425 133.206 12.8111C132.865 12.4749 132.417 12.3068 131.863 12.3068C131.395 12.3068 130.985 12.4347 130.635 12.6903C130.289 12.9413 130.019 13.3082 129.825 13.7912C129.631 14.2741 129.534 14.8589 129.534 15.5455C129.534 16.2415 129.628 16.8333 129.818 17.321C130.012 17.8087 130.284 18.1804 130.635 18.4361C130.985 18.6918 131.395 18.8196 131.863 18.8196C132.209 18.8196 132.519 18.7486 132.794 18.6065C133.073 18.4645 133.303 18.2585 133.483 17.9886C133.667 17.714 133.788 17.3849 133.845 17.0014H136.7C136.653 17.8348 136.425 18.5687 136.018 19.2031C135.616 19.8329 135.059 20.3253 134.349 20.6804C133.639 21.0355 132.798 21.2131 131.828 21.2131ZM141.663 14.6932V21H138.637V6.45455H141.577V12.0156H141.705C141.951 11.3717 142.349 10.8674 142.898 10.5028C143.448 10.1335 144.137 9.94886 144.965 9.94886C145.723 9.94886 146.383 10.1146 146.947 10.446C147.515 10.7727 147.955 11.2438 148.268 11.8594C148.585 12.4702 148.741 13.2017 148.737 14.054V21H145.711V14.5938C145.716 13.9214 145.545 13.3982 145.2 13.0241C144.859 12.6501 144.38 12.4631 143.765 12.4631C143.353 12.4631 142.988 12.5507 142.671 12.7259C142.359 12.901 142.112 13.1567 141.933 13.4929C141.757 13.8243 141.667 14.2244 141.663 14.6932Z" fill="white"/>
</svg>
